<svg width="30" height="30" viewBox="0 0 30 30" fill="none" xmlns="http://www.w3.org/2000/svg">
<path d="M8.2818 11.7183C6.37283 9.80934 5.9418 7.90037 5.84455 7.13554C5.81738 6.92407 5.89016 6.71198 6.04145 6.56175L7.58628 5.01761C7.81352 4.7905 7.85385 4.43657 7.68352 4.16416L5.22387 0.344852C5.03542 0.0432134 4.6485 -0.0656509 4.33042 0.0934725L0.381796 1.95313C0.124575 2.07979 -0.0267188 2.35308 0.00248585 2.6383C0.209382 4.60382 1.06628 9.43554 5.81455 14.1842C10.5628 18.9328 15.3939 19.7893 17.3604 19.9962C17.6456 20.0254 17.9189 19.8741 18.0456 19.6169L19.9052 15.6683C20.0638 15.3509 19.9556 14.965 19.6552 14.7762L15.8359 12.3173C15.5637 12.1468 15.2098 12.1868 14.9825 12.4138L13.4383 13.9586C13.2881 14.1099 13.076 14.1827 12.8646 14.1555C12.0997 14.0583 10.1908 13.6273 8.2818 11.7183Z" fill="#403F46"/>
<path d="M15.8623 10.6896C15.4814 10.6896 15.1726 10.3809 15.1726 9.99998C15.1694 7.14467 12.8555 4.83079 10.0002 4.82755C9.61932 4.82755 9.31055 4.51879 9.31055 4.1379C9.31055 3.75701 9.61932 3.44824 10.0002 3.44824C13.617 3.45223 16.5479 6.38321 16.5519 9.99998C16.5519 10.3809 16.2432 10.6896 15.8623 10.6896Z" fill="#403F46"/>
<path d="M19.3106 10.6897C18.9297 10.6897 18.6209 10.3809 18.6209 10C18.6156 5.24113 14.7591 1.38463 10.0002 1.37931C9.61932 1.37931 9.31055 1.07054 9.31055 0.689655C9.31055 0.308769 9.61932 0 10.0002 0C15.5205 0.00608133 19.9941 4.47967 20.0002 10C20.0002 10.1829 19.9275 10.3583 19.7982 10.4877C19.6689 10.617 19.4935 10.6897 19.3106 10.6897Z" fill="#403F46"/>
</svg>
